<?xml version="1.0" standalone="no"?><!DOCTYPE svg PUBLIC "-//W3C//DTD SVG 1.1//EN" "http://www.w3.org/Graphics/SVG/1.1/DTD/svg11.dtd"><svg t="1565834920893" class="icon" viewBox="0 0 1024 1024" version="1.1" xmlns="http://www.w3.org/2000/svg" p-id="8610" xmlns:xlink="http://www.w3.org/1999/xlink" width="200" height="200"><defs><style type="text/css"></style></defs><path d="M557.056 431.104H334.848c-17.408 0-31.744 14.336-31.744 31.744v222.208c0 17.408 14.336 31.744 31.744 31.744h222.208c17.408 0 31.744-14.336 31.744-31.744V462.848c1.024-17.408-13.312-31.744-31.744-31.744z m8.192 253.952c0 4.096-4.096 8.192-8.192 8.192H334.848c-4.096 0-8.192-4.096-8.192-8.192V462.848c0-4.096 4.096-8.192 8.192-8.192h222.208c4.096 0 8.192 4.096 8.192 8.192v222.208z" fill="#2c2c2c" p-id="8611"></path><path d="M720.896 338.944v222.208c0 17.408-14.336 31.744-31.744 31.744h-56.32c-7.168 0-12.288-5.12-12.288-12.288s5.12-12.288 12.288-12.288h56.32c4.096 0 8.192-4.096 8.192-8.192V338.944c0-4.096-3.072-8.192-8.192-8.192H466.944c-4.096 0-8.192 4.096-8.192 8.192V399.36c0 7.168-5.12 12.288-12.288 12.288s-12.288-5.12-12.288-12.288v-60.416c0-17.408 14.336-31.744 31.744-31.744h222.208c18.432-1.024 32.768 13.312 32.768 31.744z" fill="#2c2c2c" p-id="8612"></path></svg>