<?xml version="1.0" standalone="no"?><!DOCTYPE svg PUBLIC "-//W3C//DTD SVG 1.1//EN" "http://www.w3.org/Graphics/SVG/1.1/DTD/svg11.dtd"><svg t="1565834838047" class="icon" viewBox="0 0 1024 1024" version="1.1" xmlns="http://www.w3.org/2000/svg" p-id="4239" xmlns:xlink="http://www.w3.org/1999/xlink" width="200" height="200"><defs><style type="text/css"></style></defs><path d="M412.672 467.968H243.712c-11.264 0-20.48-9.216-20.48-20.48s9.216-20.48 20.48-20.48h168.96c11.264 0 20.48 9.216 20.48 20.48s-9.216 20.48-20.48 20.48zM412.672 564.224H243.712c-11.264 0-20.48-9.216-20.48-20.48s9.216-20.48 20.48-20.48h168.96c11.264 0 20.48 9.216 20.48 20.48s-9.216 20.48-20.48 20.48zM412.672 661.504H243.712c-11.264 0-20.48-9.216-20.48-20.48s9.216-20.48 20.48-20.48h168.96c11.264 0 20.48 9.216 20.48 20.48s-9.216 20.48-20.48 20.48z" fill="#231F20" p-id="4240"></path><path d="M497.664 816.128h-4.096c-49.152-9.216-105.472-13.312-165.888-13.312-60.416 0-115.712 4.096-165.888 13.312-6.144 1.024-12.288 0-16.384-4.096s-7.168-9.216-7.168-15.36V337.92c0-53.248 102.4-71.68 189.44-71.68s189.44 18.432 189.44 71.68v457.728c0 6.144-3.072 12.288-7.168 15.36-3.072 4.096-8.192 5.12-12.288 5.12z m-168.96-54.272c53.248 0 103.424 3.072 148.48 10.24V338.944c-5.12-9.216-54.272-31.744-148.48-31.744-95.232 0-143.36 22.528-148.48 31.744v433.152c45.056-7.168 94.208-10.24 148.48-10.24z" fill="#231F20" p-id="4241"></path><path d="M860.16 816.128h-4.096c-46.08-8.192-113.664-13.312-177.152-13.312-62.464 0-106.496 5.12-179.2 14.336-6.144 1.024-11.264-1.024-16.384-5.12-4.096-4.096-7.168-9.216-7.168-15.36V337.92c0-39.936 62.464-57.344 113.664-65.536 11.264-2.048 21.504 6.144 23.552 17.408 2.048 11.264-6.144 21.504-17.408 23.552-51.2 8.192-74.752 20.48-78.848 26.624v433.152c60.416-7.168 102.4-11.264 160.768-11.264 56.32 0 114.688 4.096 160.768 10.24V339.968c-5.12-6.144-28.672-18.432-78.848-26.624-11.264-2.048-18.432-12.288-17.408-23.552 2.048-11.264 12.288-18.432 23.552-17.408 51.2 8.192 112.64 26.624 112.64 65.536v457.728c0 6.144-3.072 12.288-7.168 15.36-2.048 4.096-6.144 5.12-11.264 5.12z" fill="#231F20" p-id="4242"></path><path d="M606.208 607.232c-5.12 0-9.216-1.024-13.312-3.072-11.264-5.12-19.456-16.384-19.456-29.696V230.4c0-11.264 9.216-20.48 20.48-20.48h167.936c11.264 0 20.48 9.216 20.48 20.48v344.064c0 13.312-7.168 24.576-19.456 29.696-11.264 5.12-25.6 3.072-34.816-5.12l-49.152-43.008-51.2 44.032c-6.144 5.12-13.312 7.168-21.504 7.168z m149.504-38.912zM614.4 250.88v306.176l43.008-36.864c12.288-10.24 30.72-10.24 43.008 0l40.96 35.84V250.88H614.4z m69.632 300.032z" fill="#231F20" p-id="4243"></path></svg>