<?xml version="1.0" standalone="no"?><!DOCTYPE svg PUBLIC "-//W3C//DTD SVG 1.1//EN" "http://www.w3.org/Graphics/SVG/1.1/DTD/svg11.dtd"><svg t="1565834853989" class="icon" viewBox="0 0 1024 1024" version="1.1" xmlns="http://www.w3.org/2000/svg" p-id="4375" xmlns:xlink="http://www.w3.org/1999/xlink" width="200" height="200"><defs><style type="text/css"></style></defs><path d="M301.056 764.928c-10.24 0-20.48-4.096-28.672-11.264-11.264-11.264-15.36-28.672-9.216-43.008l2.048-5.12c67.584-168.96 70.656-171.008 74.752-175.104l371.712-371.712c7.168-7.168 17.408-12.288 28.672-12.288 10.24 0 20.48 4.096 28.672 11.264l99.328 99.328c7.168 7.168 11.264 18.432 11.264 28.672 0 10.24-4.096 20.48-11.264 28.672L496.64 686.08c-4.096 4.096-7.168 7.168-177.152 74.752l-4.096 1.024c-4.096 2.048-9.216 3.072-14.336 3.072z m70.656-208.896c-3.072 6.144-16.384 35.84-67.584 163.84l-1.024 3.072 2.048-1.024c106.496-43.008 154.624-62.464 164.864-67.584L839.68 284.672l-98.304-98.304-369.664 369.664z m96.256 100.352c0 1.024 0 1.024 0 0 0 1.024 0 1.024 0 0z m386.048-356.352zM739.328 186.368z" fill="#231F20" p-id="4376"></path><path d="M436.224 646.144c-5.12 0-10.24-2.048-14.336-6.144-8.192-8.192-8.192-20.48 0-28.672l332.8-331.776c8.192-8.192 20.48-8.192 28.672 0 8.192 8.192 8.192 20.48 0 28.672L450.56 640c-4.096 4.096-9.216 6.144-14.336 6.144z" fill="#231F20" p-id="4377"></path><path d="M482.304 692.224c-5.12 0-10.24-2.048-14.336-6.144L339.968 558.08c-8.192-8.192-8.192-20.48 0-28.672 8.192-8.192 20.48-8.192 28.672 0l128 128c8.192 8.192 8.192 20.48 0 28.672-4.096 4.096-9.216 6.144-14.336 6.144zM362.496 728.064c-5.12 0-10.24-2.048-14.336-6.144l-43.008-43.008c-8.192-8.192-8.192-20.48 0-28.672 8.192-8.192 20.48-8.192 28.672 0l43.008 43.008c8.192 8.192 8.192 20.48 0 28.672-4.096 4.096-9.216 6.144-14.336 6.144z" fill="#231F20" p-id="4378"></path><path d="M661.504 881.664H205.824c-37.888 0-64.512-27.648-64.512-64.512V364.544c0-17.408 6.144-57.344 68.608-57.344h264.192c11.264 0 20.48 9.216 20.48 20.48s-9.216 20.48-20.48 20.48H209.92c-27.648 0-27.648 9.216-27.648 16.384v452.608c0 14.336 9.216 23.552 23.552 23.552h455.68c7.168 0 13.312 0 13.312-23.552V549.888c0-11.264 9.216-20.48 20.48-20.48s20.48 9.216 20.48 20.48v267.264c1.024 58.368-37.888 64.512-54.272 64.512z" fill="#231F20" p-id="4379"></path></svg>